<?xml version="1.0" standalone="no"?>
<!DOCTYPE svg PUBLIC "-//W3C//DTD SVG 20010904//EN"
 "http://www.w3.org/TR/2001/REC-SVG-20010904/DTD/svg10.dtd">
<svg version="1.0" xmlns="http://www.w3.org/2000/svg"
 width="260.000000pt" height="260.000000pt" viewBox="0 0 260.000000 260.000000"
 preserveAspectRatio="xMidYMid meet">
<metadata>
Created by potrace 1.11, written by Peter Selinger 2001-2013
</metadata>
<g transform="translate(0.000000,260.000000) scale(0.100000,-0.100000)"
fill="#000000" stroke="none">
<path d="M1240 2510 c-14 -4 -39 -8 -57 -9 -18 -1 -61 -17 -96 -36 l-65 -36 5
-62 c6 -77 -8 -117 -40 -117 -24 0 -103 -45 -124 -72 -7 -8 -43 -28 -80 -43
-183 -78 -372 -222 -483 -370 -85 -113 -154 -279 -196 -475 -27 -126 -26 -379
3 -475 89 -301 265 -495 569 -624 225 -96 531 -140 763 -110 243 31 408 76
570 156 219 108 357 256 445 476 59 149 82 384 52 537 -50 251 -154 460 -309
618 -115 117 -244 204 -396 264 -42 16 -87 40 -101 53 -38 35 -92 65 -118 65
-31 0 -45 41 -39 117 l5 62 -62 34 c-74 41 -196 64 -246 47z m-290 -735 c73
-38 111 -186 76 -292 -29 -86 -109 -163 -171 -163 -39 0 -91 25 -109 53 -31
46 -40 139 -22 219 23 100 69 160 146 185 47 15 47 15 80 -2z m807 -15 c40
-24 89 -91 103 -139 39 -133 16 -242 -59 -280 -50 -26 -81 -26 -129 -2 -39 20
-76 62 -108 121 -28 53 -26 181 4 238 41 77 122 103 189 62z m-407 -559 c48
-51 110 -156 110 -185 0 -50 -189 -77 -284 -41 -51 20 -55 31 -30 91 30 71
121 184 148 184 5 0 31 -22 56 -49z m-676 -406 c28 -13 78 -32 111 -42 l60
-18 5 -59 c5 -58 6 -60 38 -68 17 -5 89 -7 160 -6 l127 3 3 50 c2 27 9 53 15
57 7 4 73 8 147 8 304 1 514 43 653 132 26 17 50 28 53 25 8 -7 -48 -125 -90
-191 -47 -74 -150 -175 -253 -248 -97 -70 -113 -73 -113 -19 0 73 4 71 -160
71 -167 0 -160 3 -160 -81 0 -44 -2 -49 -26 -55 -34 -9 -138 2 -201 21 -100
30 -312 209 -421 357 -46 63 -84 133 -75 142 3 3 21 -8 41 -25 19 -17 57 -41
86 -54z"/>
</g>
</svg>
